# xmcd
#
# Track frame offsets:
#	150
#	25119
#	45843
#	72238
#	91917
#	124052
#	137859
#	167305
#	182338
#	204797
#
# Disc length: 3052 seconds
#
# Revision: 2
# Processed by: cddbd v1.5.1PL2 Copyright (c) Steve Scherf et al.
# Submitted via: EasyCDDAExtractor 8.0.2.1
#
DISCID=710bea0a
DTITLE=Dio - Festivalna Hall Sofia 17-12-98 Disc 1
DYEAR=1998
DGENRE=Hard Rock
TTITLE0=Evilution
TTITLE1=Straight Through The Heart
TTITLE2=Don't Talk To Strangers
TTITLE3=Holy Diver
TTITLE4=Drum Solo
TTITLE5=Heaven and Hell
TTITLE6=Children Of The Sea
TTITLE7=I Speed At Night
TTITLE8=We Rock
TTITLE9=Neon Knights
EXTD=
EXTT0=
EXTT1=
EXTT2=
EXTT3=
EXTT4=
EXTT5=
EXTT6=
EXTT7=
EXTT8=
EXTT9=
PLAYORDER=
